<?xml version="1.0" encoding="utf-8"?>
<!-- Generator: Adobe Illustrator 27.6.1, SVG Export Plug-In . SVG Version: 6.00 Build 0)  -->
<svg version="1.1" id="Layer_1" xmlns="http://www.w3.org/2000/svg" xmlns:xlink="http://www.w3.org/1999/xlink" x="0px" y="0px"
	 viewBox="0 0 1000 1000" style="enable-background:new 0 0 1000 1000;" xml:space="preserve">
<style type="text/css">
	.st0{fill:#FFFFFF;}
</style>
<g>
	<path class="st0" d="M281.57,285.36c-4.95-5.39-7.42-13.42-7.42-24.09v-72.43c0-2.75-0.96-5.09-2.89-7.01s-4.26-2.89-7.01-2.89
		v-0.99h35.97c1.65,0,2.64,1.04,2.97,3.13v101.31c0,2.09,0.8,3.93,2.39,5.53c1.6,1.59,3.44,2.39,5.53,2.39
		c0.99,0,1.98-0.22,2.97-0.66c4.62-1.87,9.13-4.67,13.53-8.42c-3.08-5.06-4.62-11.71-4.62-19.96v-72.43c0-2.75-0.96-5.09-2.89-7.01
		s-4.26-2.89-7.01-2.89v-0.99h35.97c1.65,0,2.64,1.04,2.97,3.13v101.31c0,2.09,0.8,3.93,2.39,5.53c1.6,1.59,3.44,2.39,5.53,2.39
		c0.99,0,1.98-0.22,2.97-0.66c9.79-4.07,18.64-11.77,26.56-23.1c8.58-12.43,14.13-26.51,16.66-42.24c0.66-3.74,0.61-6.79-0.17-9.16
		c-0.77-2.37-2.69-3.55-5.77-3.55c-1.87,0-3.49,0.28-4.87,0.83s-3.16,0.83-5.36,0.83c-4.84,0-8.99-1.73-12.46-5.2
		s-5.2-7.62-5.2-12.46s1.73-8.99,5.2-12.46s7.62-5.2,12.46-5.2c7.15,0,12.43,3.35,15.84,10.06c1.32,2.75,2.15,5.75,2.48,8.99
		s0.5,6.24,0.5,8.99c0,15.4-2.86,29.75-8.58,43.06c-5.72,13.31-13.09,24.03-22.11,32.17s-18.53,12.21-28.54,12.21
		c-9.24,0-16.39-3.79-21.45-11.38c-8.8,7.59-17.93,11.38-27.39,11.38C292.9,293.44,286.52,290.74,281.57,285.36z"/>
	<path class="st0" d="M417.86,293.44v-0.99c4.51-1.43,6.76-4.12,6.76-8.08v-93.22c0-3.96-2.25-6.65-6.76-8.08v-0.99l28.21-4.12h0.5
		c1.65,0,2.58,0.99,2.8,2.97v34.98c3.85-1.98,8.22-3.44,13.12-4.37c4.89-0.94,9.65-0.99,14.27-0.17s8.44,2.97,11.47,6.43
		c3.03,3.46,4.54,8.66,4.54,15.59v50.98c0,3.96,2.25,6.65,6.76,8.08v0.99h-38.28v-0.99c4.51-1.43,6.76-4.12,6.76-8.08v-48.67
		c0-2.86,0.71-5.11,2.14-6.76c1.43-1.65,2.86-3.22,4.29-4.7c1.43-1.48,2.14-3.22,2.14-5.2c0-3.63-3.74-5.55-11.22-5.77
		c-4.07,0-7.62,0.55-10.64,1.65c-3.03,1.1-4.81,1.82-5.36,2.15v67.32c0,3.96,2.25,6.65,6.76,8.08v0.99H417.86z"/>
	<path class="st0" d="M520.49,282.06c-7.37-8.14-11.05-17.98-11.05-29.53c0-11.55,3.69-21.39,11.05-29.53
		c7.37-8.14,16.22-12.21,26.56-12.21c9.02,0,16.64,3.05,22.85,9.16c6.21,6.11,10.26,13.94,12.13,23.51h-47.85
		c0,10.89,2.64,20.18,7.92,27.88c5.28,7.7,11.6,11.55,18.97,11.55c6.49,0,12.15-2.92,16.99-8.75l0.82,0.5
		c-7.81,13.09-18.42,19.63-31.84,19.63C536.71,294.27,527.86,290.19,520.49,282.06z M559.59,242.46
		c-1.1-20.46-5.28-30.69-12.54-30.69c-2.86,0-5.14,1.32-6.85,3.96s-2.97,5.75-3.79,9.32c-0.82,3.58-1.4,6.98-1.73,10.23
		s-0.49,5.64-0.49,7.18H559.59z"/>
	<path class="st0" d="M590.28,293.44v-0.99c4.51-1.43,6.76-4.12,6.76-8.08v-58.74c0-4.18-2.25-6.87-6.76-8.08v-0.99l28.21-4.12h0.5
		c1.65,0,2.58,0.93,2.8,2.8v0.83c3.08-1.65,6.54-3.22,10.39-4.7c3.85-1.49,7.42-2.23,10.72-2.23c3.63,0.22,6.68,1.51,9.16,3.88
		c2.47,2.37,3.71,5.31,3.71,8.83c0,3.52-1.27,6.54-3.79,9.08c-2.53,2.53-5.55,3.79-9.07,3.79c-3.41,0-6.38-1.27-8.91-3.79
		c-2.53-2.53-3.79-5.55-3.79-9.08c0-1.1,0.08-1.92,0.25-2.47c0.16-0.55,0.25-1.16,0.25-1.81c0-1.65-0.88-2.48-2.64-2.48
		c-1.43,0-3.52,0.66-6.27,1.98v67.32c0,3.96,2.25,6.65,6.76,8.08v0.99H590.28z"/>
	<path class="st0" d="M670.14,282.06c-7.37-8.14-11.05-17.98-11.05-29.53c0-11.55,3.69-21.39,11.05-29.53
		c7.37-8.14,16.22-12.21,26.56-12.21c9.02,0,16.64,3.05,22.85,9.16c6.21,6.11,10.26,13.94,12.13,23.51h-47.85
		c0,10.89,2.64,20.18,7.92,27.88c5.28,7.7,11.6,11.55,18.97,11.55c6.49,0,12.15-2.92,16.99-8.75l0.82,0.5
		c-7.81,13.09-18.42,19.63-31.84,19.63C686.37,294.27,677.51,290.19,670.14,282.06z M709.24,242.46
		c-1.1-20.46-5.28-30.69-12.54-30.69c-2.86,0-5.14,1.32-6.85,3.96s-2.97,5.75-3.79,9.32c-0.82,3.58-1.4,6.98-1.73,10.23
		s-0.49,5.64-0.49,7.18H709.24z"/>
	<path class="st0" d="M264.09,422.56v-0.95c2.63,0,4.87-0.92,6.71-2.76c1.84-1.84,2.76-4.08,2.76-6.71v-89.71
		c0-2.63-0.92-4.87-2.76-6.71c-1.84-1.84-4.08-2.76-6.71-2.76V312H311v0.95c-2.63,0-4.9,0.92-6.79,2.76
		c-1.9,1.84-2.84,4.08-2.84,6.71v99.19h0.47c8.42,0,15.82-2.5,22.19-7.5c6.37-5,10.61-11.5,12.71-19.51h0.95v27.96H264.09z"/>
	<path class="st0" d="M356.96,411.66c-7.05-7.79-10.58-17.22-10.58-28.27s3.53-20.48,10.58-28.27c7.05-7.79,15.53-11.69,25.43-11.69
		c8.63,0,15.93,2.92,21.87,8.77c5.95,5.84,9.82,13.35,11.61,22.51h-45.8c0,10.42,2.53,19.32,7.58,26.69s11.11,11.06,18.16,11.06
		c6.21,0,11.63-2.79,16.27-8.37l0.79,0.47c-7.48,12.53-17.64,18.79-30.48,18.79C372.49,423.35,364.01,419.45,356.96,411.66z
		 M394.39,373.75c-1.05-19.58-5.05-29.38-12-29.38c-2.74,0-4.92,1.26-6.56,3.79c-1.63,2.53-2.84,5.5-3.63,8.92
		c-0.79,3.42-1.34,6.69-1.66,9.79c-0.32,3.11-0.47,5.4-0.47,6.87H394.39z"/>
	<path class="st0" d="M435.46,418.14c-3.48-3.47-5.21-7.63-5.21-12.48v-59.7h-6.48v-0.95c11.9,0,21.64-4.74,29.22-14.21h0.95v14.21
		h10.27v0.95h-10.27v62.39c0,2.32,0.84,4.32,2.53,6c1.68,1.69,3.69,2.53,6,2.53c1.79,0,3.37-0.47,4.74-1.42v1.11
		c-1.9,1.47-4.47,2.97-7.74,4.5c-3.26,1.53-7.11,2.29-11.53,2.29C443.09,423.35,438.93,421.61,435.46,418.14z"/>
	<path class="st0" d="M485.21,418.14c-3.48-3.47-5.21-7.63-5.21-12.48v-59.7h-6.48v-0.95c11.9,0,21.64-4.74,29.22-14.21h0.95v14.21
		h10.27v0.95h-10.27v62.39c0,2.32,0.84,4.32,2.53,6c1.68,1.69,3.68,2.53,6,2.53c1.79,0,3.37-0.47,4.74-1.42v1.11
		c-1.9,1.47-4.47,2.97-7.74,4.5c-3.26,1.53-7.11,2.29-11.53,2.29C492.84,423.35,488.68,421.61,485.21,418.14z"/>
	<path class="st0" d="M533.85,411.66c-7.05-7.79-10.58-17.22-10.58-28.27s3.53-20.48,10.58-28.27c7.05-7.79,15.53-11.69,25.43-11.69
		c8.63,0,15.92,2.92,21.87,8.77c5.95,5.84,9.82,13.35,11.61,22.51h-45.8c0,10.42,2.53,19.32,7.58,26.69
		c5.06,7.37,11.11,11.06,18.16,11.06c6.21,0,11.64-2.79,16.27-8.37l0.79,0.47c-7.48,12.53-17.64,18.79-30.48,18.79
		C549.38,423.35,540.9,419.45,533.85,411.66z M571.28,373.75c-1.05-19.58-5.06-29.38-12-29.38c-2.74,0-4.92,1.26-6.56,3.79
		c-1.63,2.53-2.84,5.5-3.63,8.92c-0.79,3.42-1.34,6.69-1.66,9.79c-0.32,3.11-0.47,5.4-0.47,6.87H571.28z"/>
	<path class="st0" d="M600.66,422.56v-0.95c4.32-1.37,6.48-3.95,6.48-7.74v-56.23c0-4-2.16-6.58-6.48-7.74v-0.95l27.01-3.95h0.47
		c1.58,0,2.47,0.89,2.68,2.68v0.79c2.95-1.58,6.27-3.08,9.95-4.5c3.69-1.42,7.11-2.13,10.27-2.13c3.48,0.21,6.4,1.45,8.77,3.71
		c2.37,2.26,3.55,5.08,3.55,8.45c0,3.37-1.21,6.26-3.63,8.69c-2.42,2.42-5.32,3.63-8.69,3.63c-3.26,0-6.11-1.21-8.53-3.63
		c-2.42-2.42-3.63-5.32-3.63-8.69c0-1.05,0.08-1.84,0.24-2.37c0.16-0.53,0.24-1.11,0.24-1.74c0-1.58-0.84-2.37-2.53-2.37
		c-1.37,0-3.37,0.63-6,1.9v64.44c0,3.79,2.16,6.37,6.48,7.74v0.95H600.66z"/>
	<path class="st0" d="M680.1,417.43c-5.9-3.95-8.84-8.82-8.84-14.61c0-3.37,1.21-6.24,3.63-8.61c2.42-2.37,5.26-3.55,8.53-3.55
		c3.37,0,6.26,1.18,8.69,3.55c2.42,2.37,3.63,5.24,3.63,8.61c0,2.84-0.61,5.03-1.82,6.55s-2.45,2.79-3.71,3.79
		c-1.26,1-1.9,2.19-1.9,3.55c0,2.32,1.95,4.05,5.84,5.21c1.37,0.32,3.63,0.47,6.79,0.47c2.84,0,5.27-1,7.26-3c2-2,3-4.42,3-7.27
		c0-3.16-1.37-6.21-4.11-9.16c-2.74-2.95-6.06-5.92-9.95-8.92c-3.9-3-7.82-6.13-11.77-9.4c-3.95-3.26-7.29-6.76-10.03-10.5
		c-2.74-3.74-4.1-7.82-4.1-12.24c0-4.21,1.42-7.69,4.26-10.42c2.84-2.74,6.32-4.76,10.42-6.08c4.11-1.32,8.11-1.97,12-1.97
		c3.79,0,6.98,0.37,9.56,1.11c2.58,0.74,4.9,1.42,6.95,2.05c2.05,0.63,4.19,0.9,6.4,0.79c1.79-0.32,3.11-0.89,3.95-1.74h0.79v25.59
		h-0.79c-0.74-5.16-2.69-10.53-5.84-16.11c-3.16-5.58-8.48-9.06-15.95-10.42c-6-0.74-9.48,2.21-10.42,8.84
		c0,5.48,2.97,10.48,8.92,15c5.95,4.53,12.06,9.35,18.32,14.45c6.27,5.11,9.93,11.19,10.98,18.24c0.21,6.42-2.66,11.71-8.61,15.87
		c-5.95,4.16-13.03,6.24-21.24,6.24C692.95,423.35,686,421.37,680.1,417.43z"/>
	<path class="st0" d="M309.77,671.88v-1.8c5.21,0,9.52-1.75,12.92-5.26c3.41-3.51,5.11-7.76,5.11-12.77V463.32
		c-17.03,0-30.6,5.16-40.72,15.48c-10.12,10.32-17.18,23.49-21.19,39.52h-1.8v-56.8H444.7v56.8h-1.8
		c-4.01-16.03-11.07-29.2-21.19-39.52c-10.12-10.32-23.69-15.48-40.72-15.48v188.73c0,5.01,1.75,9.27,5.26,12.77
		c3.51,3.51,7.76,5.26,12.77,5.26v1.8H309.77z"/>
	<path class="st0" d="M454.32,651.15c-13.42-14.83-20.13-32.76-20.13-53.79s6.71-38.97,20.13-53.79
		c13.42-14.83,29.55-22.24,48.38-22.24c16.43,0,30.3,5.56,41.62,16.68c11.32,11.12,18.68,25.39,22.09,42.82h-87.15
		c0,19.83,4.81,36.76,14.42,50.79c9.62,14.02,21.14,21.04,34.56,21.04c11.82,0,22.14-5.31,30.95-15.93l1.5,0.9
		c-14.22,23.84-33.56,35.76-58,35.76C483.87,673.38,467.74,665.97,454.32,651.15z M525.54,579.02c-2-37.26-9.62-55.9-22.84-55.9
		c-5.21,0-9.37,2.4-12.47,7.21c-3.11,4.81-5.41,10.47-6.91,16.98c-1.5,6.51-2.55,12.72-3.16,18.63c-0.6,5.91-0.9,10.27-0.9,13.07
		H525.54z"/>
	<path class="st0" d="M581.44,671.88v-1.8c8.21-2.6,12.32-7.51,12.32-14.73V485.56c0-7.21-4.11-12.12-12.32-14.73v-1.8l51.39-7.51
		h0.9c3.01,0,4.71,1.8,5.11,5.41v188.43c0,7.21,4.11,12.12,12.32,14.73v1.8H581.44z"/>
	<path class="st0" d="M666.19,671.88v-1.8c8.22-2.6,12.32-7.51,12.32-14.73V485.56c0-7.21-4.11-12.12-12.32-14.73v-1.8l51.39-7.51
		h0.9c3.01,0,4.71,1.8,5.11,5.41v188.43c0,7.21,4.11,12.12,12.32,14.73v1.8H666.19z"/>
	<path class="st0" d="M275.98,813.57c-7.92-5.14-11.88-11.47-11.88-18.98c0-4.53,1.62-8.41,4.86-11.65
		c3.24-3.24,7.13-4.86,11.65-4.86s8.41,1.62,11.65,4.86c3.24,3.24,4.86,7.13,4.86,11.65c0,3.81-0.82,6.74-2.47,8.8
		c-1.65,2.06-3.22,3.83-4.71,5.32c-1.49,1.49-2.13,3.16-1.93,5.02c0.41,1.95,1.96,3.55,4.63,4.78c2.68,1.23,6.53,1.85,11.58,1.85
		c3.91,0,7.49-1.41,10.73-4.24c3.24-2.83,4.86-6.3,4.86-10.42c0-4.63-1.9-9.03-5.71-13.2c-3.81-4.17-8.44-8.26-13.89-12.27
		c-5.45-4.01-10.93-8.13-16.44-12.35c-5.51-4.22-10.16-8.75-13.97-13.58c-3.81-4.84-5.71-10.13-5.71-15.9
		c0-6.17,2.11-11.11,6.33-14.82c4.22-3.71,9.36-6.35,15.43-7.95c6.07-1.59,11.88-2.39,17.44-2.39c4.94,0,9.26,0.36,12.96,1.08
		c3.7,0.72,7.72,1.08,12.04,1.08c3.4,0,6.17-0.72,8.33-2.16h0.93v29.17h-0.93c-0.82-4.42-2.57-8.77-5.25-13.04
		c-2.67-4.27-6.07-7.85-10.19-10.73c-4.12-2.88-8.85-4.32-14.2-4.32c-3.91,0-7.38,1-10.42,3.01c-3.04,2.01-4.76,5.32-5.17,9.95
		c-0.21,5.97,2.19,11.34,7.18,16.13c4.99,4.78,10.91,9.49,17.75,14.12c6.84,4.63,13.02,9.67,18.52,15.13
		c5.5,5.45,8.72,11.73,9.65,18.83c0.31,8.54-3.55,15.64-11.58,21.3c-8.03,5.66-17.59,8.49-28.71,8.49
		C293.31,821.28,283.9,818.71,275.98,813.57z"/>
	<path class="st0" d="M363.02,816.96c-3.4-3.4-5.09-7.46-5.09-12.19v-58.34h-6.33v-0.93c11.63,0,21.14-4.63,28.55-13.89h0.93v13.89
		h10.03v0.93h-10.03v60.96c0,2.26,0.82,4.22,2.47,5.87c1.65,1.65,3.6,2.47,5.86,2.47c1.75,0,3.29-0.46,4.63-1.39v1.08
		c-1.85,1.44-4.37,2.91-7.56,4.4c-3.19,1.49-6.95,2.24-11.27,2.24C370.48,822.06,366.42,820.36,363.02,816.96z"/>
	<path class="st0" d="M410.56,810.63c-6.89-7.61-10.34-16.82-10.34-27.63c0-10.8,3.45-20.01,10.34-27.63
		c6.89-7.61,15.18-11.42,24.85-11.42c9.77,0,18.08,3.81,24.93,11.42c6.84,7.61,10.26,16.82,10.26,27.63
		c0,10.8-3.42,20.01-10.26,27.63c-6.84,7.61-15.15,11.42-24.93,11.42C425.73,822.06,417.45,818.25,410.56,810.63z M447.29,783.01
		c0-25.52-3.96-38.22-11.88-38.12c-7.72,0-11.73,12.71-12.04,38.12c0,25.31,4.01,38.02,12.04,38.12
		C443.12,821.13,447.08,808.42,447.29,783.01z"/>
	<path class="st0" d="M479.85,821.28v-0.93c4.22-1.34,6.33-3.86,6.33-7.56v-54.95c0-3.91-2.11-6.43-6.33-7.56v-0.93l26.39-3.86h0.46
		c1.54,0,2.42,0.87,2.62,2.62v0.77c2.88-1.54,6.12-3.01,9.72-4.4c3.6-1.39,6.94-2.08,10.03-2.08c3.4,0.21,6.25,1.41,8.57,3.63
		c2.32,2.21,3.47,4.96,3.47,8.26s-1.18,6.12-3.55,8.49c-2.37,2.37-5.2,3.55-8.49,3.55c-3.19,0-5.97-1.18-8.33-3.55
		c-2.37-2.37-3.55-5.2-3.55-8.49c0-1.03,0.08-1.8,0.23-2.32c0.15-0.51,0.23-1.08,0.23-1.7c0-1.54-0.82-2.32-2.47-2.32
		c-1.34,0-3.29,0.62-5.86,1.85v62.97c0,3.7,2.11,6.23,6.33,7.56v0.93H479.85z"/>
	<path class="st0" d="M548.84,821.28v-0.93c4.22-1.34,6.33-3.86,6.33-7.56v-54.95c0-3.91-2.11-6.43-6.33-7.56v-0.93l26.39-3.86h0.46
		c1.54,0,2.42,0.87,2.62,2.62v64.67c0,3.7,2.11,6.23,6.33,7.56v0.93H548.84z M558.33,733.62c-2.31-2.37-3.47-5.14-3.47-8.33
		c0-3.29,1.16-6.12,3.47-8.49c2.32-2.37,5.12-3.55,8.41-3.55c3.29,0,6.12,1.18,8.49,3.55c2.37,2.37,3.55,5.2,3.55,8.49
		c0,3.19-1.18,5.97-3.55,8.33c-2.37,2.37-5.2,3.55-8.49,3.55C563.45,737.17,560.65,735.98,558.33,733.62z"/>
	<path class="st0" d="M604.24,810.63c-6.89-7.61-10.34-16.82-10.34-27.63c0-10.8,3.45-20.01,10.34-27.63
		c6.89-7.61,15.18-11.42,24.85-11.42c8.44,0,15.56,2.86,21.38,8.57c5.82,5.71,9.6,13.04,11.35,21.99h-44.76
		c0,10.19,2.47,18.88,7.41,26.08c4.94,7.2,10.86,10.8,17.75,10.8c6.07,0,11.37-2.73,15.9-8.18l0.77,0.46
		c-7.3,12.24-17.23,18.37-29.79,18.37C619.42,822.06,611.14,818.25,604.24,810.63z M640.82,773.59
		c-1.03-19.14-4.94-28.71-11.73-28.71c-2.67,0-4.81,1.23-6.4,3.7c-1.59,2.47-2.78,5.38-3.55,8.72c-0.77,3.34-1.31,6.53-1.62,9.57
		c-0.31,3.04-0.46,5.27-0.46,6.71H640.82z"/>
	<path class="st0" d="M681.26,816.27c-5.76-3.86-8.64-8.62-8.64-14.28c0-3.29,1.18-6.1,3.55-8.41c2.37-2.32,5.14-3.47,8.33-3.47
		c3.29,0,6.12,1.16,8.49,3.47c2.37,2.32,3.55,5.12,3.55,8.41c0,2.78-0.59,4.91-1.77,6.41c-1.18,1.49-2.39,2.73-3.63,3.7
		s-1.85,2.13-1.85,3.47c0,2.26,1.9,3.96,5.71,5.09c1.34,0.31,3.55,0.46,6.64,0.46c2.78,0,5.15-0.98,7.1-2.93
		c1.96-1.95,2.93-4.32,2.93-7.1c0-3.09-1.34-6.07-4.01-8.95c-2.67-2.88-5.92-5.79-9.72-8.72c-3.81-2.93-7.64-5.99-11.5-9.18
		c-3.86-3.19-7.13-6.61-9.8-10.26c-2.68-3.65-4.01-7.64-4.01-11.96c0-4.12,1.39-7.51,4.17-10.19c2.78-2.67,6.17-4.66,10.19-5.94
		c4.01-1.29,7.92-1.93,11.73-1.93c3.71,0,6.82,0.36,9.34,1.08c2.52,0.72,4.78,1.39,6.79,2.01c2.01,0.62,4.09,0.87,6.25,0.77
		c1.75-0.31,3.04-0.87,3.86-1.7h0.77v25h-0.77c-0.72-5.04-2.63-10.29-5.71-15.74c-3.09-5.45-8.28-8.85-15.59-10.19
		c-5.86-0.72-9.26,2.16-10.19,8.64c0,5.35,2.91,10.24,8.72,14.66c5.81,4.43,11.78,9.13,17.9,14.12c6.12,4.99,9.7,10.93,10.73,17.83
		c0.21,6.28-2.6,11.45-8.41,15.51c-5.81,4.06-12.73,6.1-20.76,6.1C693.81,822.06,687.02,820.13,681.26,816.27z"/>
</g>
</svg>
