<?xml version="1.0" encoding="utf-8"?>
<!-- Generator: Adobe Illustrator 27.6.1, SVG Export Plug-In . SVG Version: 6.00 Build 0)  -->
<svg version="1.1" id="Layer_1" xmlns="http://www.w3.org/2000/svg" xmlns:xlink="http://www.w3.org/1999/xlink" x="0px" y="0px"
	 viewBox="0 0 1000 1000" style="enable-background:new 0 0 1000 1000;" xml:space="preserve">
<style type="text/css">
	.st0{fill:#FFFFFF;}
</style>
<g>
	<path class="st0" d="M635.07,616.35c-58.85-17.43-92.79-223.67-143.6-282.97c-5.28-6.16-11.91-7.11-17.42-5.09
		c-17.08,6.26-27.09,52.71-27.86,70.45l6.4,1.37c5.11-23.43,10.89-46.4,35.35-2.3c90.01,162.26,77.18,247.97,139.85,266.85
		c30.2,9.1,75.77-12.47,81.92-77.07c2.11-22.14-4.62-45.44-17.3-60.32c5.63-10.03,10.4-20.82,4.51-21.54
		c-16.37-2.02-30.31-12.04-37.92-19.03l-6.79,0.4l-15.1,35.2l1.02,5.23c47.36,42.65,52.45,70.15,52.81,72.3
		C677.31,614.62,657.98,623.14,635.07,616.35z"/>
	<path class="st0" d="M546.79,667.89c8.29-12.85,10.14-38.34,7.69-55.33c-6.4-44.35-81.53-123.63-115.36-115.32
		c-19.43,4.77-32.24,57.65-32.24,57.65l7.52,4.79c0,0,9.33-22.84,24.63-19.7c38.07,7.81,88.62,71.71,98.71,98.22
		c-20.14,21.42-128.73,97.94-164.11,90.96c-26.76-5.28-29.51-21.76-21.33-46.43c36.83,4.39,79.09-23.11,80.48-70.11
		c0.97-32.88-40.72-50.99-58.71-67.28c6.66-16.35,62.47-149.46,14.04-164.55c-38.77-12.08-64.39,90.48-74.07,112.75
		c-0.5-0.57-26.33-37.16-24.69-57.09c4.72-57.28,279.27-191.06,336.15-218.06c6.03-2.86,10.47-8.21,12.2-14.66l4.66-17.39
		c0.39-1.47-1.14-2.72-2.51-2.05C449.87,277.78,281.8,355.54,276.12,454.42c-0.69,12.06-4.93,41.97,24.38,80.79l-21.89,74.87
		l-27.58-11.55c1.96-9.4,7.19-29.8,0.79-36.66c-6.69-7.17-51.7-18.39-35.01-71.03l-8.84-2.87c-10.72,30.38-25.76,78.07,2.83,103.68
		c7.12,6.38,26.4,14.87,26.49,14.74c0,0.1,0.02,0.27,0.13,0.63c0,0-10.65,29.23-7.88,33.91c3.08,5.2,18.07,12.24,40.86,18.59
		c6.65,1.85,38.44-114.52,38.44-114.52s20.06,21.49,36.21,31.65c-33.46,73.98-15.46,97.18-0.57,103.38v0c0.32,0.15,0.67,0.27,1,0.41
		c-12.77,45.32-16.91,97.91,24.28,95.77C429.33,773.1,524.88,701.85,546.79,667.89z M323.73,504.11c0.14-0.37,0.28-0.74,0.43-1.12
		c0.42-1.11,27.38-85.7,55.53-75.72c32.33,11.45-6.1,77.93-17.51,109.32C339.46,523.34,323.73,504.11,323.73,504.11z M357.07,585.51
		c1.58,1.15,37.93,26.99,49.93,39.22c1.07,1.09,0.82,2.92-0.52,3.66c-29.75,16.3-53.37,9.59-61.21-0.36
		C340.69,622.22,354.37,591.77,357.07,585.51z"/>
	<path class="st0" d="M574.83,415.31c-7.08,52.07,38.41,69.62,42.54-1.97l-5.12-0.48c-8.7,25.32-29.25,18.29-29.18,0.55
		c0.08-20.66,11.59-45.61,30-59.55c16.7-12.65,47.42-32.04,64.32-42.28c18.47-11.18,22.03-12.88,24.12-33.75l-1.1-0.71
		c-33.41,22.7-66.49,39.25-96.77,68.52C591.15,357.73,579.19,383.25,574.83,415.31z"/>
	<path class="st0" d="M742,700.41l-27.77,17.5c-0.7,2.87-1.1,4.53-1.79,7.4l16.69,28.26c2.99,0.72,4.62,1.12,7.62,1.84l27.77-17.5
		c0.7-2.87,1.1-4.53,1.79-7.4l-16.69-28.26C746.62,701.53,744.99,701.14,742,700.41z"/>
	<path class="st0" d="M742,745.6l-27.77,17.5c-0.7,2.87-1.1,4.53-1.79,7.4l16.69,28.26c2.99,0.72,4.62,1.12,7.62,1.84l27.77-17.5
		c0.7-2.87,1.1-4.53,1.79-7.4l-16.69-28.26C746.62,746.71,744.99,746.32,742,745.6z"/>
	<polygon class="st0" points="711.2,400.34 688.25,423.81 688.22,431.42 711.03,455.03 718.86,455.06 741.81,431.59 741.84,423.97 
		719.03,400.36 	"/>
	<path class="st0" d="M777.92,502.11c4.42-8.71,7.13-16.83,2.16-17.18c-19.33-1.38-40.62-15.38-40.62-15.38l-0.16,0.41
		c-0.25-0.13-0.5-0.28-0.75-0.41l-6.48,2.49l-9.75,32.83l4.33,7.27c57.57,31.35,63.53,87.85,63.51,88.65
		c-33.29,31.13-241.72,170.66-338.21,207.2l0.69,7.9c53.68-1.58,70.01-7.24,79.87-10.64l0.59,0.04l0.52-0.29
		C648.23,738.82,786.64,652,796.91,623.9C817.02,568.87,799.13,527.81,777.92,502.11z"/>
</g>
</svg>
